<?xml version="1.0" standalone="no"?>
<!DOCTYPE svg PUBLIC "-//W3C//DTD SVG 20010904//EN"
 "http://www.w3.org/TR/2001/REC-SVG-20010904/DTD/svg10.dtd">
<svg version="1.0" xmlns="http://www.w3.org/2000/svg"
 width="57.000000pt" height="52.000000pt" viewBox="0 0 57.000000 52.000000"
 preserveAspectRatio="xMidYMid meet">

<g transform="translate(0.000000,52.000000) scale(0.100000,-0.100000)"
fill="#000000" stroke="none">
<path d="M232 383 c-28 -53 -16 -73 44 -73 l45 0 -27 48 c-39 68 -40 68 -62
25z"/>
<path d="M190 294 c0 -4 9 -22 21 -40 20 -34 21 -34 94 -34 l73 0 37 -65 36
-65 45 0 46 0 -30 53 c-16 28 -43 75 -59 102 l-29 50 -117 3 c-64 1 -117 0
-117 -4z"/>
<path d="M240 145 l-35 -65 -80 0 c-79 0 -80 -1 -97 -31 -10 -17 -18 -34 -18
-37 0 -4 55 -5 122 -2 l122 5 52 90 c29 50 53 93 54 98 0 4 -19 7 -42 7 -43 0
-43 -1 -78 -65z"/>
<path d="M87 155 c-15 -25 -27 -48 -27 -50 0 -3 20 -5 44 -5 30 0 46 5 50 15
5 15 -22 85 -33 85 -4 0 -18 -20 -34 -45z"/>
</g>
</svg>
