<svg xmlns="http://www.w3.org/2000/svg" aria-hidden="true" style="position:absolute;width:0;height:0;overflow:hidden">
  <defs>
    <symbol id="icon-skype" viewBox="0 0 32 32">
      <path d="M31.048 19.377C33.363 8.975 24.249-.474 13.547 1.34 7.737-2.265 0 1.809 0 8.721c0 1.608.444 3.113 1.215 4.41-2.151 10.426 7.037 19.739 17.73 17.801 7.559 3.997 15.912-3.974 12.103-11.555zM20.874 25.65c-2.808 1.155-7.429 1.161-10.224-.302-3.987-2.126-4.695-6.911-1.256-6.911 2.592 0 1.772 3.022 4.389 4.254 1.201.555 3.784.613 5.285-.4 1.483-.992 1.347-2.553.541-3.299-2.135-1.971-8.245-1.188-11.038-4.639-1.213-1.497-1.443-4.138.049-6.053 2.6-3.346 10.23-3.549 13.511-1.023 3.029 2.344 2.211 5.455-.233 5.455-2.94 0-1.395-3.846-6.141-3.846-3.441 0-4.794 2.447-2.371 3.637 3.285 1.632 11.655 1.087 11.655 7.462-.007 2.653-1.633 4.631-4.167 5.664z"/>
    </symbol>
    <symbol id="icon-wa" viewBox="0 0 32 32">
      <path d="M16 0C7.165 0 0 7.165 0 16s7.165 16 16 16 16-7.165 16-16S24.835 0 16 0zm-4.649 24.187H7.454V12.464h3.897v11.723zM9.402 10.863h-.025c-1.308 0-2.153-.9-2.153-2.025 0-1.15.872-2.026 2.205-2.026s2.153.875 2.179 2.026c0 1.125-.846 2.025-2.205 2.025zm15.999 13.324h-3.896v-6.272c0-1.576-.564-2.651-1.974-2.651-1.077 0-1.718.725-1.999 1.425-.103.25-.128.601-.128.951v6.547h-3.897s.051-10.623 0-11.723h3.897v1.66c.518-.799 1.444-1.935 3.512-1.935 2.564 0 4.486 1.676 4.486 5.276v6.722z"/>
    </symbol>
    <symbol id="icon-ln" viewBox="0 0 32 32">
      <path d="M16.004 0h-.008C7.174 0 0 7.176 0 16c0 3.5 1.128 6.744 3.046 9.378l-1.994 5.944 6.15-1.966A15.862 15.862 0 0 0 16.004 32C24.826 32 32 24.822 32 16S24.826 0 16.004 0zm9.31 22.594c-.386 1.09-1.918 1.994-3.14 2.258-.836.178-1.928.32-5.604-1.204-4.702-1.948-7.73-6.726-7.966-7.036-.226-.31-1.9-2.53-1.9-4.826S7.87 8.372 8.34 7.892c.386-.394 1.024-.574 1.636-.574.198 0 .376.01.536.018.47.02.706.048 1.016.79.386.93 1.326 3.226 1.438 3.462.114.236.228.556.068.866-.15.32-.282.462-.518.734s-.46.48-.696.772c-.216.254-.46.526-.188.996.272.46 1.212 1.994 2.596 3.226 1.786 1.59 3.234 2.098 3.752 2.314.386.16.846.122 1.128-.178.358-.386.8-1.026 1.25-1.656.32-.452.724-.508 1.148-.348.432.15 2.718 1.28 3.188 1.514.47.236.78.348.894.546.112.198.112 1.128-.274 2.22z"/>
    </symbol>
    <symbol id="icon-fb" viewBox="0 0 32 32">
      <path d="M32 16.04C32 7.186 24.832 0 16 0S0 7.186 0 16.04c0 7.763 5.504 14.228 12.8 15.719V20.852H9.6V16.04h3.2v-4.01c0-3.096 2.512-5.614 5.6-5.614h4v4.812h-3.2c-.88 0-1.6.722-1.6 1.604v3.208h4.8v4.812h-4.8V32c8.08-.802 14.4-7.635 14.4-15.96z"/>
    </symbol>
    <symbol id="icon-list" viewBox="0 0 32 32">
      <path d="M16 25.6 0 10.88 4.978 6.4 16 16.64 27.022 6.4 32 10.88 16 25.6z"/>
    </symbol>
  </defs>
</svg>