<svg xmlns="http://www.w3.org/2000/svg" aria-hidden="true" style="position:absolute;width:0;height:0;overflow:hidden">
  <defs>
    <symbol id="icon-skype" viewBox="0 0 32 32">
      <path d="M31.048 19.377C33.363 8.975 24.249-.474 13.547 1.34 7.737-2.265 0 1.809 0 8.721c0 1.608.444 3.113 1.215 4.41-2.151 10.426 7.037 19.739 17.73 17.801 7.559 3.997 15.912-3.974 12.103-11.555zM20.874 25.65c-2.808 1.155-7.429 1.161-10.224-.302-3.987-2.126-4.695-6.911-1.256-6.911 2.592 0 1.772 3.022 4.389 4.254 1.201.555 3.784.613 5.285-.4 1.483-.992 1.347-2.553.541-3.299-2.135-1.971-8.245-1.188-11.038-4.639-1.213-1.497-1.443-4.138.049-6.053 2.6-3.346 10.23-3.549 13.511-1.023 3.029 2.344 2.211 5.455-.233 5.455-2.94 0-1.395-3.846-6.141-3.846-3.441 0-4.794 2.447-2.371 3.637 3.285 1.632 11.655 1.087 11.655 7.462-.007 2.653-1.633 4.631-4.167 5.664z"/>
    </symbol>
    <symbol id="icon-wa" viewBox="0 0 32 32">
      <path d="M16 0C7.165 0 0 7.165 0 16s7.165 16 16 16 16-7.165 16-16S24.835 0 16 0zm-4.649 24.187H7.454V12.464h3.897v11.723zM9.402 10.863h-.025c-1.308 0-2.153-.9-2.153-2.025 0-1.15.872-2.026 2.205-2.026s2.153.875 2.179 2.026c0 1.125-.846 2.025-2.205 2.025zm15.999 13.324h-3.896v-6.272c0-1.576-.564-2.651-1.974-2.651-1.077 0-1.718.725-1.999 1.425-.103.25-.128.601-.128.951v6.547h-3.897s.051-10.623 0-11.723h3.897v1.66c.518-.799 1.444-1.935 3.512-1.935 2.564 0 4.486 1.676 4.486 5.276v6.722z"/>
    </symbol>
    <symbol id="icon-ln" viewBox="0 0 32 32">
      <path d="M16.004 0h-.008C7.174 0 0 7.176 0 16c0 3.5 1.128 6.744 3.046 9.378l-1.994 5.944 6.15-1.966A15.862 15.862 0 0 0 16.004 32C24.826 32 32 24.822 32 16S24.826 0 16.004 0zm9.31 22.594c-.386 1.09-1.918 1.994-3.14 2.258-.836.178-1.928.32-5.604-1.204-4.702-1.948-7.73-6.726-7.966-7.036-.226-.31-1.9-2.53-1.9-4.826S7.87 8.372 8.34 7.892c.386-.394 1.024-.574 1.636-.574.198 0 .376.01.536.018.47.02.706.048 1.016.79.386.93 1.326 3.226 1.438 3.462.114.236.228.556.068.866-.15.32-.282.462-.518.734s-.46.48-.696.772c-.216.254-.46.526-.188.996.272.46 1.212 1.994 2.596 3.226 1.786 1.59 3.234 2.098 3.752 2.314.386.16.846.122 1.128-.178.358-.386.8-1.026 1.25-1.656.32-.452.724-.508 1.148-.348.432.15 2.718 1.28 3.188 1.514.47.236.78.348.894.546.112.198.112 1.128-.274 2.22z"/>
    </symbol>
    <symbol id="icon-fb" viewBox="0 0 32 32">
      <path d="M32 16.04C32 7.186 24.832 0 16 0S0 7.186 0 16.04c0 7.763 5.504 14.228 12.8 15.719V20.852H9.6V16.04h3.2v-4.01c0-3.096 2.512-5.614 5.6-5.614h4v4.812h-3.2c-.88 0-1.6.722-1.6 1.604v3.208h4.8v4.812h-4.8V32c8.08-.802 14.4-7.635 14.4-15.96z"/>
    </symbol>
    <symbol id="icon-list" viewBox="0 0 32 32">
      <path d="M16 25.6 0 10.88 4.978 6.4 16 16.64 27.022 6.4 32 10.88 16 25.6z"/>
    </symbol>
    <symbol id="icon-android" viewBox="0 0 26 32">
      <path d="M5.248 10.667l0.001 12.592c0 1.148 0.913 2.075 2.043 2.075h0.58v4.723c0 1.072 0.928 1.944 1.981 1.944 1.057 0 1.955-0.872 1.955-1.945v-4.721h2.624v4.723c0 1.072 0.928 1.944 1.982 1.944 1.058 0 1.954-0.872 1.954-1.945v-4.721l0.583-0.001c1.126 0 2.041-0.928 2.041-2.076v-12.589h-15.744zM26.24 12.628c0-1.073-0.912-1.961-1.968-1.961-1.056-0.001-1.968 0.889-1.968 1.963v8.141c0 1.075 0.911 1.896 1.968 1.896 1.056 0 1.968-0.82 1.968-1.896v-8.143zM3.936 12.628c0-1.073-0.912-1.961-1.968-1.961-1.056-0.001-1.968 0.889-1.968 1.963v8.141c0 1.075 0.911 1.896 1.968 1.896 1.056 0 1.968-0.82 1.968-1.896v-8.143zM16.992 2.879l1.233-2.479c0.089-0.176-0.025-0.4-0.214-0.4-0.087 0-0.171 0.051-0.215 0.14l-1.245 2.504c-2.009-0.983-4.65-1.083-6.86 0l-1.246-2.504c-0.043-0.089-0.127-0.14-0.215-0.14-0.189 0-0.303 0.224-0.214 0.4l1.233 2.479c-2.421 1.379-4 3.445-4 6.453h15.744c0-3.008-1.58-5.075-4-6.453zM9.841 6.667c-0.362 0-0.657-0.299-0.657-0.667 0-0.365 0.295-0.667 0.657-0.667s0.655 0.301 0.655 0.667c0 0.368-0.293 0.667-0.655 0.667zM16.399 6.667c-0.362 0-0.655-0.299-0.655-0.667 0-0.365 0.293-0.667 0.655-0.667s0.657 0.301 0.657 0.667c0 0.368-0.295 0.667-0.657 0.667z"></path>
    </symbol>
    <symbol id="icon-mac" viewBox="0 0 27 32">
      <path d="M26.24 23.477c-1.031 3.040-4.118 8.423-7.299 8.482-2.11 0.041-2.788-1.271-5.199-1.271-2.41 0-3.165 1.231-5.159 1.311-3.374 0.132-8.583-7.77-8.583-14.661 0-6.33 4.34-9.467 8.132-9.524 2.034-0.037 3.954 1.393 5.194 1.393 1.245 0 3.578-1.72 6.030-1.468 1.026 0.044 3.908 0.42 5.758 3.169-4.908 3.256-4.143 10.066 1.126 12.568zM19.389 0c-3.708 0.152-6.733 4.105-6.311 7.375 3.427 0.271 6.715-3.633 6.311-7.375z"></path>
    </symbol>
    <symbol id="icon-ubuntu" viewBox="0 0 29 32">
      <path d="M25.275 0l-11.592 3.406-1.716 3.32-3.481-0.028-8.485 9.305 8.485 9.303 3.48-0.029 1.719 3.318 11.59 3.406 3.105-12.707-1.764-3.291 1.764-3.291-3.105-12.711zM12.246 7.26l8.867-2.499-5.090 9.669h-10.182l6.405-7.17zM12.246 24.742l-6.405-7.17h10.182l5.090 9.669-8.867-2.499zM23.595 25.669l-5.092-9.667 5.092-9.671 2.459 9.671-2.459 9.667z"></path>
    </symbol>
    <symbol id="icon-contacts-facebook" viewBox="0 0 32 32">
      <path d="M29.333 16c0-7.36-5.973-13.333-13.333-13.333s-13.333 5.973-13.333 13.333c0 6.453 4.587 11.827 10.667 13.067v-9.067h-2.667v-4h2.667v-3.333c0-2.573 2.093-4.667 4.667-4.667h3.333v4h-2.667c-0.733 0-1.333 0.6-1.333 1.333v2.667h4v4h-4v9.267c6.733-0.667 12-6.347 12-13.267z"></path>
    </symbol>
    <symbol id="icon-contacts-email" viewBox="0 0 32 32">
      <path d="M26.667 5.333h-21.333c-1.467 0-2.653 1.2-2.653 2.667l-0.013 16c0 1.467 1.2 2.667 2.667 2.667h21.333c1.467 0 2.667-1.2 2.667-2.667v-16c0-1.467-1.2-2.667-2.667-2.667zM26.667 10.667l-10.667 6.667-10.667-6.667v-2.667l10.667 6.667 10.667-6.667v2.667z"></path>
    </symbol>
    <symbol id="icon-contacts-skype" viewBox="0 0 32 32">
      <path d="M28.54 18.814c1.929-8.668-5.665-16.542-14.584-15.031-4.842-3.004-11.289 0.391-11.289 6.151 0 1.34 0.37 2.594 1.012 3.675-1.793 8.688 5.864 16.449 14.775 14.834 6.299 3.331 13.26-3.312 10.086-9.629zM20.062 24.042c-2.34 0.962-6.191 0.968-8.52-0.252-3.322-1.771-3.913-5.759-1.047-5.759 2.16 0 1.476 2.518 3.657 3.545 1.001 0.463 3.154 0.511 4.405-0.333 1.235-0.827 1.122-2.128 0.451-2.749-1.779-1.643-6.871-0.99-9.199-3.866-1.011-1.247-1.202-3.448 0.041-5.044 2.167-2.788 8.525-2.958 11.259-0.852 2.524 1.953 1.843 4.546-0.194 4.546-2.45 0-1.162-3.205-5.117-3.205-2.867 0-3.995 2.039-1.976 3.031 2.737 1.36 9.713 0.906 9.713 6.219-0.006 2.211-1.361 3.859-3.472 4.72z"></path>
    </symbol>
    <symbol id="icon-contacts-whatsapp" viewBox="0 0 32 32">
      <path d="M16.003 2.667h-0.007c-7.352 0-13.33 5.98-13.33 13.333 0 2.917 0.94 5.62 2.538 7.815l-1.662 4.953 5.125-1.638c2.108 1.397 4.623 2.203 7.335 2.203 7.352 0 13.33-5.982 13.33-13.333s-5.978-13.333-13.33-13.333zM23.762 21.495c-0.322 0.908-1.598 1.662-2.617 1.882-0.697 0.148-1.607 0.267-4.67-1.003-3.918-1.623-6.442-5.605-6.638-5.863-0.188-0.258-1.583-2.108-1.583-4.022s0.972-2.845 1.363-3.245c0.322-0.328 0.853-0.478 1.363-0.478 0.165 0 0.313 0.008 0.447 0.015 0.392 0.017 0.588 0.040 0.847 0.658 0.322 0.775 1.105 2.688 1.198 2.885 0.095 0.197 0.19 0.463 0.057 0.722-0.125 0.267-0.235 0.385-0.432 0.612s-0.383 0.4-0.58 0.643c-0.18 0.212-0.383 0.438-0.157 0.83 0.227 0.383 1.010 1.662 2.163 2.688 1.488 1.325 2.695 1.748 3.127 1.928 0.322 0.133 0.705 0.102 0.94-0.148 0.298-0.322 0.667-0.855 1.042-1.38 0.267-0.377 0.603-0.423 0.957-0.29 0.36 0.125 2.265 1.067 2.657 1.262 0.392 0.197 0.65 0.29 0.745 0.455 0.093 0.165 0.093 0.94-0.228 1.85z"></path>
    </symbol>
    <symbol id="icon-contacts-phone" viewBox="0 0 32 32">
      <path d="M8.827 14.387c1.92 3.773 5.013 6.853 8.787 8.787l2.933-2.933c0.36-0.36 0.893-0.48 1.36-0.32 1.493 0.493 3.107 0.76 4.76 0.76 0.733 0 1.333 0.6 1.333 1.333v4.653c0 0.733-0.6 1.333-1.333 1.333-12.52 0-22.667-10.147-22.667-22.667 0-0.733 0.6-1.333 1.333-1.333h4.667c0.733 0 1.333 0.6 1.333 1.333 0 1.667 0.267 3.267 0.76 4.76 0.147 0.467 0.040 0.987-0.333 1.36l-2.933 2.933z"></path>
    </symbol>
    <symbol id="icon-contacts-location" viewBox="0 0 32 32">
      <path d="M16 2.667c-5.16 0-9.333 4.173-9.333 9.333 0 7 9.333 17.333 9.333 17.333s9.333-10.333 9.333-17.333c0-5.16-4.173-9.333-9.333-9.333zM16 15.333c-1.84 0-3.333-1.493-3.333-3.333s1.493-3.333 3.333-3.333c1.84 0 3.333 1.493 3.333 3.333s-1.493 3.333-3.333 3.333z"></path>
    </symbol>
    <symbol id="icon-footer-logo" viewBox="0 0 127 32">
      <path d="M4.708 13.493l7.843-13.49 2.824 5.020-4.706 8.471 4.078 7.216-3.137 5.020-6.902-12.235z"></path>
      <path d="M16.002 6.277l-2.824 5.020 0.941 1.255h5.647l-3.765-6.274z"></path>
      <path d="M14.434 18.512l-2.824-5.020h14.431l7.843 13.49h-5.647l-5.020-8.471h-8.784z"></path>
      <path d="M22.277 19.453h-5.333l-4.706 7.529h-9.412l-2.824 4.706 15.373 0.314 6.902-12.549z"></path>
      <path d="M24.159 21.963h-2.196l-2.824 5.020h7.843l-2.824-5.020z"></path>
      <path d="M10.042 24.473l-2.824-4.706-4.078 5.961h5.961l0.941-1.255z"></path>
      <path d="M44.706 19.044c0 0.497-0.115 0.929-0.345 1.298-0.221 0.359-0.571 0.64-1.049 0.842-0.479 0.193-1.086 0.29-1.822 0.29-0.534 0-1.003-0.032-1.408-0.097-0.396-0.064-0.796-0.179-1.201-0.345v-1.877c0.442 0.193 0.902 0.345 1.38 0.456 0.488 0.11 0.893 0.166 1.215 0.166 0.35 0 0.603-0.046 0.759-0.138s0.235-0.221 0.235-0.387c0-0.12-0.041-0.225-0.124-0.317-0.074-0.092-0.23-0.198-0.469-0.317-0.23-0.12-0.575-0.271-1.035-0.456-0.451-0.193-0.824-0.391-1.118-0.594-0.285-0.202-0.502-0.446-0.649-0.732-0.138-0.285-0.207-0.635-0.207-1.049 0-0.718 0.276-1.256 0.828-1.615 0.561-0.368 1.302-0.552 2.222-0.552 0.488 0 0.948 0.051 1.38 0.152s0.879 0.258 1.339 0.469l-0.663 1.574c-0.248-0.11-0.497-0.207-0.745-0.29-0.239-0.083-0.469-0.147-0.69-0.193s-0.428-0.069-0.621-0.069c-0.258 0-0.456 0.037-0.594 0.11-0.138 0.064-0.207 0.166-0.207 0.304 0 0.101 0.037 0.198 0.11 0.29 0.083 0.083 0.235 0.175 0.456 0.276 0.23 0.101 0.561 0.244 0.994 0.428 0.432 0.175 0.801 0.359 1.104 0.552s0.534 0.433 0.69 0.718c0.156 0.285 0.235 0.653 0.235 1.104zM49.673 19.624c0.239 0 0.46-0.023 0.663-0.069s0.41-0.106 0.621-0.179v1.712c-0.248 0.11-0.534 0.202-0.856 0.276s-0.704 0.11-1.146 0.11c-0.469 0-0.888-0.074-1.256-0.221-0.359-0.156-0.644-0.419-0.856-0.787-0.202-0.377-0.304-0.897-0.304-1.56v-3.41h-0.966v-0.966l1.16-0.745 0.635-1.601h1.491v1.574h2.015v1.739h-2.015v3.327c0 0.267 0.074 0.469 0.221 0.607 0.147 0.129 0.345 0.193 0.594 0.193zM55.792 13.606c0.985 0 1.748 0.23 2.291 0.69 0.543 0.451 0.814 1.123 0.814 2.015v5.025h-1.615l-0.456-1.021h-0.055c-0.212 0.267-0.433 0.488-0.663 0.663-0.221 0.175-0.479 0.299-0.773 0.373-0.285 0.083-0.64 0.124-1.063 0.124-0.442 0-0.842-0.087-1.201-0.262-0.35-0.175-0.626-0.442-0.828-0.801s-0.304-0.814-0.304-1.367c0-0.81 0.281-1.408 0.842-1.794 0.571-0.387 1.403-0.603 2.498-0.649l1.298-0.041v-0.221c0-0.368-0.097-0.635-0.29-0.801-0.184-0.166-0.442-0.248-0.773-0.248s-0.676 0.055-1.035 0.166c-0.359 0.101-0.722 0.23-1.090 0.386l-0.704-1.546c0.414-0.221 0.883-0.391 1.408-0.511s1.090-0.179 1.698-0.179zM55.875 17.912c-0.58 0.018-0.985 0.124-1.215 0.317-0.23 0.184-0.345 0.437-0.345 0.759 0 0.285 0.083 0.492 0.248 0.621s0.377 0.193 0.635 0.193c0.386 0 0.713-0.115 0.98-0.345 0.267-0.239 0.4-0.561 0.4-0.966v-0.607l-0.704 0.028zM65.376 13.619c0.801 0 1.445 0.221 1.933 0.663 0.497 0.432 0.745 1.136 0.745 2.112v4.942h-2.319v-4.293c0-0.525-0.087-0.92-0.262-1.187s-0.451-0.4-0.828-0.4c-0.562 0-0.943 0.212-1.146 0.635-0.203 0.414-0.304 1.012-0.304 1.794v3.451h-2.333v-7.578h1.767l0.318 0.98h0.11c0.166-0.248 0.363-0.456 0.594-0.621s0.493-0.29 0.787-0.373c0.294-0.083 0.607-0.124 0.939-0.124zM71.937 11.632c-0.083 0.331-0.189 0.704-0.317 1.118s-0.267 0.828-0.414 1.242c-0.147 0.414-0.299 0.791-0.456 1.132h-1.656c0.065-0.294 0.129-0.598 0.193-0.911 0.065-0.322 0.124-0.644 0.179-0.966 0.065-0.322 0.12-0.63 0.166-0.925 0.055-0.304 0.097-0.584 0.124-0.842h2.084l0.097 0.152zM78.123 19.044c0 0.497-0.115 0.929-0.345 1.298-0.221 0.359-0.57 0.64-1.049 0.842-0.478 0.193-1.085 0.29-1.822 0.29-0.533 0-1.003-0.032-1.408-0.097-0.395-0.064-0.796-0.179-1.201-0.345v-1.877c0.442 0.193 0.902 0.345 1.38 0.456 0.488 0.11 0.893 0.166 1.215 0.166 0.35 0 0.603-0.046 0.759-0.138s0.235-0.221 0.235-0.387c0-0.12-0.041-0.225-0.124-0.317-0.073-0.092-0.23-0.198-0.469-0.317-0.23-0.12-0.575-0.271-1.035-0.456-0.451-0.193-0.823-0.391-1.118-0.594-0.285-0.202-0.501-0.446-0.649-0.732-0.138-0.285-0.207-0.635-0.207-1.049 0-0.718 0.276-1.256 0.828-1.615 0.562-0.368 1.303-0.552 2.222-0.552 0.488 0 0.948 0.051 1.38 0.152s0.879 0.258 1.339 0.469l-0.663 1.574c-0.248-0.11-0.497-0.207-0.745-0.29-0.239-0.083-0.469-0.147-0.69-0.193s-0.428-0.069-0.621-0.069c-0.257 0-0.456 0.037-0.594 0.11-0.138 0.064-0.207 0.166-0.207 0.304 0 0.101 0.037 0.198 0.11 0.29 0.083 0.083 0.235 0.175 0.456 0.276 0.23 0.101 0.562 0.244 0.994 0.428 0.433 0.175 0.801 0.359 1.104 0.552s0.534 0.433 0.69 0.718c0.157 0.285 0.235 0.653 0.235 1.104zM86.635 13.606c0.984 0 1.749 0.23 2.291 0.69 0.543 0.451 0.814 1.123 0.814 2.015v5.025h-1.615l-0.456-1.021h-0.055c-0.211 0.267-0.432 0.488-0.663 0.663-0.221 0.175-0.479 0.299-0.773 0.373-0.285 0.083-0.639 0.124-1.063 0.124-0.442 0-0.842-0.087-1.201-0.262-0.35-0.175-0.626-0.442-0.828-0.801s-0.304-0.814-0.304-1.367c0-0.81 0.28-1.408 0.842-1.794 0.57-0.387 1.404-0.603 2.499-0.649l1.298-0.041v-0.221c0-0.368-0.097-0.635-0.29-0.801-0.184-0.166-0.442-0.248-0.773-0.248s-0.676 0.055-1.035 0.166c-0.359 0.101-0.722 0.23-1.091 0.386l-0.704-1.546c0.414-0.221 0.883-0.391 1.408-0.511s1.091-0.179 1.698-0.179zM86.718 17.912c-0.58 0.018-0.984 0.124-1.215 0.317-0.23 0.184-0.345 0.437-0.345 0.759 0 0.285 0.083 0.492 0.248 0.621s0.377 0.193 0.635 0.193c0.386 0 0.713-0.115 0.98-0.345 0.267-0.239 0.4-0.561 0.4-0.966v-0.607l-0.704 0.028zM97.158 19.044c0 0.497-0.115 0.929-0.345 1.298-0.221 0.359-0.57 0.64-1.049 0.842-0.479 0.193-1.086 0.29-1.822 0.29-0.534 0-1.003-0.032-1.408-0.097-0.396-0.064-0.796-0.179-1.201-0.345v-1.877c0.442 0.193 0.902 0.345 1.38 0.456 0.488 0.11 0.893 0.166 1.215 0.166 0.35 0 0.603-0.046 0.759-0.138s0.235-0.221 0.235-0.387c0-0.12-0.041-0.225-0.124-0.317-0.073-0.092-0.23-0.198-0.469-0.317-0.23-0.12-0.575-0.271-1.035-0.456-0.451-0.193-0.824-0.391-1.118-0.594-0.285-0.202-0.501-0.446-0.649-0.732-0.138-0.285-0.207-0.635-0.207-1.049 0-0.718 0.276-1.256 0.828-1.615 0.562-0.368 1.302-0.552 2.222-0.552 0.488 0 0.948 0.051 1.38 0.152s0.879 0.258 1.339 0.469l-0.663 1.574c-0.248-0.11-0.497-0.207-0.745-0.29-0.239-0.083-0.469-0.147-0.69-0.193s-0.428-0.069-0.621-0.069c-0.258 0-0.456 0.037-0.594 0.11-0.138 0.064-0.207 0.166-0.207 0.304 0 0.101 0.037 0.198 0.11 0.29 0.083 0.083 0.235 0.175 0.456 0.276 0.23 0.101 0.562 0.244 0.994 0.428 0.432 0.175 0.801 0.359 1.104 0.552s0.534 0.433 0.69 0.718c0.156 0.285 0.235 0.653 0.235 1.104zM104.141 19.044c0 0.497-0.115 0.929-0.345 1.298-0.221 0.359-0.57 0.64-1.049 0.842-0.479 0.193-1.086 0.29-1.822 0.29-0.534 0-1.003-0.032-1.408-0.097-0.396-0.064-0.796-0.179-1.201-0.345v-1.877c0.442 0.193 0.902 0.345 1.38 0.456 0.488 0.11 0.893 0.166 1.215 0.166 0.35 0 0.603-0.046 0.759-0.138s0.235-0.221 0.235-0.387c0-0.12-0.041-0.225-0.124-0.317-0.073-0.092-0.23-0.198-0.469-0.317-0.23-0.12-0.575-0.271-1.035-0.456-0.451-0.193-0.824-0.391-1.118-0.594-0.285-0.202-0.501-0.446-0.649-0.732-0.138-0.285-0.207-0.635-0.207-1.049 0-0.718 0.276-1.256 0.828-1.615 0.562-0.368 1.302-0.552 2.222-0.552 0.488 0 0.948 0.051 1.38 0.152s0.879 0.258 1.339 0.469l-0.663 1.574c-0.248-0.11-0.497-0.207-0.745-0.29-0.239-0.083-0.469-0.147-0.69-0.193s-0.428-0.069-0.621-0.069c-0.258 0-0.456 0.037-0.594 0.11-0.138 0.064-0.207 0.166-0.207 0.304 0 0.101 0.037 0.198 0.11 0.29 0.083 0.083 0.235 0.175 0.456 0.276 0.23 0.101 0.562 0.244 0.994 0.428 0.432 0.175 0.801 0.359 1.104 0.552s0.534 0.433 0.69 0.718c0.156 0.285 0.235 0.653 0.235 1.104zM108.942 13.619c0.718 0 1.335 0.133 1.85 0.4 0.525 0.258 0.925 0.644 1.201 1.16 0.285 0.506 0.428 1.137 0.428 1.891v1.077h-4.79c0.018 0.497 0.179 0.893 0.483 1.187s0.736 0.442 1.298 0.442c0.488 0 0.929-0.046 1.325-0.138s0.805-0.239 1.229-0.442v1.726c-0.368 0.193-0.764 0.331-1.187 0.414-0.424 0.092-0.943 0.138-1.56 0.138-0.764 0-1.445-0.138-2.043-0.414-0.589-0.276-1.053-0.699-1.394-1.27-0.331-0.58-0.497-1.311-0.497-2.195 0-0.902 0.152-1.643 0.456-2.222 0.304-0.589 0.732-1.026 1.284-1.311 0.552-0.294 1.192-0.442 1.919-0.442zM108.984 15.234c-0.359 0-0.658 0.115-0.897 0.345-0.23 0.221-0.368 0.575-0.414 1.063h2.609c0-0.267-0.051-0.506-0.152-0.718-0.092-0.212-0.235-0.377-0.428-0.497-0.193-0.129-0.432-0.193-0.718-0.193zM117.426 19.624c0.239 0 0.46-0.023 0.663-0.069s0.409-0.106 0.621-0.179v1.712c-0.248 0.11-0.534 0.202-0.856 0.276s-0.704 0.11-1.146 0.11c-0.469 0-0.888-0.074-1.256-0.221-0.359-0.156-0.644-0.419-0.856-0.787-0.203-0.377-0.304-0.897-0.304-1.56v-3.41h-0.966v-0.966l1.16-0.745 0.635-1.601h1.491v1.574h2.015v1.739h-2.015v3.327c0 0.267 0.073 0.469 0.221 0.607 0.147 0.129 0.345 0.193 0.594 0.193zM125.601 19.044c0 0.497-0.115 0.929-0.345 1.298-0.221 0.359-0.57 0.64-1.049 0.842-0.479 0.193-1.086 0.29-1.822 0.29-0.534 0-1.003-0.032-1.408-0.097-0.396-0.064-0.796-0.179-1.201-0.345v-1.877c0.442 0.193 0.902 0.345 1.38 0.456 0.488 0.11 0.893 0.166 1.215 0.166 0.35 0 0.603-0.046 0.759-0.138s0.235-0.221 0.235-0.387c0-0.12-0.041-0.225-0.124-0.317-0.073-0.092-0.23-0.198-0.469-0.317-0.23-0.12-0.575-0.271-1.035-0.456-0.451-0.193-0.824-0.391-1.118-0.594-0.285-0.202-0.501-0.446-0.649-0.732-0.138-0.285-0.207-0.635-0.207-1.049 0-0.718 0.276-1.256 0.828-1.615 0.562-0.368 1.302-0.552 2.222-0.552 0.488 0 0.948 0.051 1.38 0.152s0.879 0.258 1.339 0.469l-0.663 1.574c-0.248-0.11-0.497-0.207-0.745-0.29-0.239-0.083-0.469-0.147-0.69-0.193s-0.428-0.069-0.621-0.069c-0.258 0-0.456 0.037-0.594 0.11-0.138 0.064-0.207 0.166-0.207 0.304 0 0.101 0.037 0.198 0.11 0.29 0.083 0.083 0.235 0.175 0.456 0.276 0.23 0.101 0.562 0.244 0.994 0.428 0.432 0.175 0.801 0.359 1.104 0.552s0.534 0.433 0.69 0.718c0.156 0.285 0.235 0.653 0.235 1.104z"></path>
    </symbol>
    <symbol id="icon-footer-git" viewBox="0 0 33 32">
      <path d="M16.41 0c-9.067 0-16.41 7.233-16.41 16.154 0 7.138 4.702 13.192 11.22 15.326 0.821 0.152 1.121-0.348 1.121-0.777 0-0.384-0.014-1.4-0.021-2.747-4.565 0.974-5.528-2.167-5.528-2.167-0.747-1.864-1.826-2.363-1.826-2.363-1.486-1.001 0.115-0.981 0.115-0.981 1.648 0.112 2.514 1.664 2.514 1.664 1.463 2.47 3.841 1.756 4.779 1.344 0.148-1.045 0.57-1.756 1.039-2.16-3.644-0.404-7.475-1.793-7.475-7.982 0-1.763 0.636-3.204 1.689-4.334-0.185-0.408-0.738-2.051 0.144-4.275 0 0 1.374-0.433 4.513 1.656 1.313-0.359 2.708-0.537 4.103-0.545 1.395 0.008 2.79 0.186 4.103 0.545 3.118-2.089 4.492-1.656 4.492-1.656 0.882 2.225 0.328 3.867 0.164 4.275 1.046 1.13 1.682 2.571 1.682 4.334 0 6.206-3.836 7.571-7.487 7.969 0.574 0.485 1.108 1.475 1.108 2.989 0 2.162-0.020 3.899-0.020 4.423 0 0.423 0.287 0.929 1.128 0.767 6.566-2.121 11.263-8.178 11.263-15.306 0-8.921-7.348-16.154-16.41-16.154z"></path>
    </symbol>
    <symbol id="icon-footer-skype" viewBox="0 0 29 32">
      <path d="M28.225 20.525c2.104-9.456-6.181-18.046-15.91-16.397-5.282-3.278-12.315 0.426-12.315 6.71 0 1.461 0.403 2.83 1.104 4.009-1.956 9.478 6.397 17.945 16.119 16.183 6.872 3.633 14.466-3.613 11.002-10.505v0zM18.976 26.227c-2.553 1.050-6.753 1.056-9.295-0.275-3.624-1.932-4.269-6.283-1.142-6.283 2.356 0 1.61 2.747 3.99 3.867 1.092 0.505 3.44 0.557 4.805-0.363 1.348-0.902 1.224-2.321 0.492-2.999-1.941-1.792-7.496-1.080-10.035-4.217-1.103-1.361-1.311-3.762 0.045-5.503 2.364-3.041 9.3-3.227 12.282-0.93 2.754 2.131 2.010 4.959-0.212 4.959-2.672 0-1.268-3.497-5.582-3.497-3.128 0-4.358 2.224-2.155 3.307 2.986 1.483 10.596 0.988 10.596 6.784-0.006 2.412-1.485 4.21-3.788 5.149v0z"></path>
    </symbol>
    <symbol id="icon-footer-whatsapp" viewBox="0 0 32 32">
      <path d="M16.007 0.003h-0.008c-8.82 0-15.993 7.175-15.993 15.997 0 3.499 1.128 6.743 3.045 9.376l-1.994 5.943 6.149-1.966c2.53 1.676 5.547 2.643 8.8 2.643 8.82 0 15.993-7.177 15.993-15.997s-7.173-15.997-15.993-15.997zM25.315 22.593c-0.386 1.090-1.918 1.994-3.139 2.258-0.836 0.178-1.928 0.32-5.603-1.204-4.701-1.948-7.728-6.725-7.964-7.035-0.226-0.31-1.9-2.529-1.9-4.825s1.166-3.413 1.636-3.893c0.386-0.394 1.024-0.574 1.636-0.574 0.198 0 0.376 0.010 0.536 0.018 0.47 0.020 0.706 0.048 1.016 0.79 0.386 0.93 1.326 3.225 1.438 3.461 0.114 0.236 0.228 0.556 0.068 0.866-0.15 0.32-0.282 0.462-0.518 0.734s-0.46 0.48-0.696 0.772c-0.216 0.254-0.46 0.526-0.188 0.996 0.272 0.46 1.212 1.994 2.595 3.225 1.786 1.59 3.233 2.098 3.751 2.314 0.386 0.16 0.846 0.122 1.128-0.178 0.358-0.386 0.8-1.026 1.25-1.656 0.32-0.452 0.724-0.508 1.148-0.348 0.432 0.15 2.717 1.28 3.187 1.514 0.47 0.236 0.78 0.348 0.894 0.546 0.112 0.198 0.112 1.128-0.274 2.22z"></path>
    </symbol>
    <symbol id="icon-footer-linkedin" viewBox="0 0 32 32">
      <path d="M16 0c-8.835 0-16 7.165-16 16s7.165 16 16 16c8.835 0 16-7.165 16-16s-7.165-16-16-16zM11.351 24.188h-3.897v-11.723h3.897v11.723zM9.402 10.863h-0.025c-1.308 0-2.153-0.9-2.153-2.025 0-1.15 0.872-2.026 2.205-2.026s2.153 0.875 2.179 2.026c0 1.125-0.846 2.025-2.205 2.025zM25.401 24.188h-3.896v-6.272c0-1.576-0.564-2.651-1.974-2.651-1.076 0-1.718 0.725-1.999 1.425-0.103 0.25-0.128 0.601-0.128 0.951v6.547h-3.896c0 0 0.051-10.624 0-11.723h3.896v1.66c0.518-0.799 1.444-1.935 3.512-1.935 2.564 0 4.486 1.676 4.486 5.276v6.722z"></path>
    </symbol>
    <symbol id="icon-footer-facebook" viewBox="0 0 32 32">
      <path d="M32 16.040c0-8.854-7.168-16.040-16-16.040s-16 7.186-16 16.040c0 7.763 5.504 14.228 12.8 15.719v-10.907h-3.2v-4.812h3.2v-4.010c0-3.096 2.512-5.614 5.6-5.614h4v4.812h-3.2c-0.88 0-1.6 0.722-1.6 1.604v3.208h4.8v4.812h-4.8v11.148c8.080-0.802 14.4-7.635 14.4-15.96z"></path>
    </symbol>
    <symbol id="icon-page-techno-hero" viewBox="0 0 5 32">
      <path d="M0 0.055h2.689c1.040 0 1.882 0.843 1.882 1.882v28.069c0 1.040-0.843 1.882-1.882 1.882h-2.689v-0.807h2.689c0.594 0 1.076-0.482 1.076-1.076v-28.069c0-0.594-0.482-1.076-1.076-1.076h-2.689v-0.807z"></path>
    </symbol>
  </defs>
</svg>